<svg aria-hidden="true" style="position: absolute; width: 0; height: 0; overflow: hidden;" version="1.1" xmlns="http://www.w3.org/2000/svg" xmlns:xlink="http://www.w3.org/1999/xlink">
<defs>
<symbol id="icon-dump" viewBox="0 0 32 32">
<path fill="#4f2ee8" style="fill: var(--color1, #4f2ee8)" d="M32 16c0 8.837-7.163 16-16 16s-16-7.163-16-16c0-8.837 7.163-16 16-16s16 7.163 16 16z"></path>
<path fill="none" stroke="#fff" style="stroke: var(--color2, #fff)" stroke-linejoin="round" stroke-linecap="butt" stroke-miterlimit="4" stroke-width="1.6842" d="M13.684 9.053h4.632M9.053 11.368h13.895M21.404 11.368l-0.541 8.12c-0.081 1.218-0.122 1.827-0.385 2.289-0.232 0.407-0.581 0.734-1.002 0.938-0.478 0.232-1.089 0.232-2.31 0.232h-2.33c-1.221 0-1.832 0-2.31-0.232-0.421-0.204-0.771-0.531-1.002-0.938-0.263-0.462-0.304-1.071-0.385-2.289l-0.541-8.12M14.456 14.842v3.86M17.544 14.842v3.86"></path>
</symbol>
<symbol id="icon-vector_left" viewBox="0 0 16 32">
<path d="M5.228 17.624c-0.214-0.212-0.385-0.465-0.499-0.744-0.117-0.279-0.178-0.577-0.178-0.879s0.061-0.6 0.178-0.879c0.114-0.278 0.285-0.531 0.499-0.744l10.492-10.468c0.214-0.212 0.382-0.465 0.499-0.744s0.175-0.577 0.175-0.879c0-0.302-0.058-0.6-0.175-0.879s-0.285-0.531-0.499-0.744c-0.429-0.426-1.008-0.665-1.612-0.665s-1.183 0.239-1.612 0.665l-10.49 10.491c-1.286 1.286-2.006 3.028-2.006 4.845s0.721 3.56 2.006 4.845l10.49 10.491c0.426 0.422 1.001 0.66 1.6 0.663 0.302 0.002 0.599-0.056 0.877-0.17 0.28-0.114 0.533-0.281 0.748-0.493 0.214-0.213 0.382-0.465 0.499-0.744s0.175-0.577 0.175-0.879-0.058-0.6-0.175-0.879c-0.117-0.279-0.285-0.531-0.499-0.744l-10.492-10.468z"></path>
</symbol>
<symbol id="icon-vector_right" viewBox="0 0 16 32">
<path d="M11.167 17.624c0.214-0.212 0.385-0.465 0.499-0.744 0.117-0.279 0.178-0.577 0.178-0.879s-0.061-0.6-0.178-0.879c-0.114-0.278-0.285-0.531-0.499-0.744l-10.492-10.468c-0.214-0.212-0.382-0.465-0.499-0.744s-0.175-0.577-0.175-0.879c0-0.302 0.058-0.6 0.175-0.879s0.285-0.531 0.499-0.744c0.429-0.426 1.008-0.665 1.612-0.665s1.183 0.239 1.612 0.665l10.49 10.491c1.286 1.286 2.006 3.028 2.006 4.845s-0.721 3.56-2.006 4.845l-10.49 10.491c-0.426 0.422-1.001 0.66-1.6 0.663-0.302 0.002-0.599-0.056-0.877-0.17-0.28-0.114-0.533-0.281-0.748-0.493s-0.382-0.465-0.499-0.744-0.175-0.577-0.175-0.879c0-0.302 0.058-0.6 0.175-0.879s0.285-0.531 0.499-0.744l10.492-10.468z"></path>
</symbol>
<symbol id="icon-align-left" viewBox="0 0 32 32">
<path stroke-linejoin="round" stroke-linecap="round" stroke-miterlimit="4" stroke-width="2.2857" d="M22.667 13.333h-18.667"></path>
<path stroke-linejoin="round" stroke-linecap="round" stroke-miterlimit="4" stroke-width="2.2857" d="M28 8h-24"></path>
<path stroke-linejoin="round" stroke-linecap="round" stroke-miterlimit="4" stroke-width="2.2857" d="M28 18.667h-24"></path>
<path stroke-linejoin="round" stroke-linecap="round" stroke-miterlimit="4" stroke-width="2.2857" d="M22.667 24h-18.667"></path>
</symbol>
<symbol id="icon-arrow-narrow-right" viewBox="0 0 32 32">
<path stroke-linejoin="round" stroke-linecap="butt" stroke-miterlimit="4" stroke-width="3.2" d="M5.333 16h21.333M18.666 8l8 8-8 8"></path>
</symbol>
<symbol id="icon-Bookshelf-2" viewBox="0 0 186 32">
<path d="M185.741 4.038v-3.734c-0.912-0.174-1.91-0.304-3.039-0.304-3.647 0-5.644 1.65-5.644 6.339v2.822h-3.17v3.734h3.17v18.453h4.602v-18.453h4.081v-3.734h-4.081v-2.431c0-2.518 1.129-2.822 4.081-2.692zM23.403 8.119c0-4.993-3.69-7.816-10.073-7.816h-13.329v31.045h14.068c6.426 0 10.551-3.083 10.551-9.075 0-4.646-2.779-7.034-6.035-7.598v-0.087c2.562-0.868 4.819-2.648 4.819-6.469zM76.481 0.304v31.045h4.559v-8.033l3.083-2.909 6.99 10.942h5.471l-9.335-13.938 8.423-8.25h-5.601l-9.031 8.901v-17.759h-4.559zM130.991 8.554c-3.734 0-6.035 1.737-7.208 3.474h-0.087v-11.723h-4.559v31.045h4.559v-13.503c0-3.3 2.388-5.427 5.732-5.427 3.17 0 4.429 1.91 4.429 4.906v14.024h4.602v-15.327c0-5.080-3.257-7.468-7.468-7.468zM166.247 0.304v31.045h4.603v-31.045h-4.603zM5.167 13.156v-8.467h8.293c3.082 0 4.776 1.52 4.776 4.255s-1.39 4.212-5.080 4.212h-7.989zM26.717 20.277c0 6.904 4.212 11.723 11.159 11.723s11.159-4.82 11.159-11.723-4.212-11.723-11.159-11.723c-6.947 0-11.159 4.82-11.159 11.723zM51.013 20.277c0 6.904 4.212 11.723 11.159 11.723s11.159-4.82 11.159-11.723-4.212-11.723-11.159-11.723c-6.947 0-11.159 4.82-11.159 11.723zM107.575 17.932c-3.213-0.738-5.688-0.912-5.688-3.17 0-1.563 1.476-2.605 4.211-2.605 3.56 0 4.429 1.78 4.732 3.517h4.429c-0.304-3.864-3.17-7.121-9.205-7.121-5.557 0-8.771 2.909-8.771 6.556 0 5.037 4.776 5.731 8.293 6.556 3.257 0.782 5.905 0.999 5.905 3.777 0 1.389-1.346 2.953-4.515 2.953-4.69 0-5.731-2.041-5.949-4.429h-4.429c0.217 4.689 3.3 8.033 10.464 8.033 5.384 0 9.031-2.649 9.031-6.904 0-5.297-4.429-6.209-8.51-7.164zM152.441 28.266c-4.038 0-6.426-3.083-6.426-6.817h17.020c0-7.902-3.517-12.896-10.681-12.896-6.687 0-10.899 4.516-10.899 11.723 0 6.947 4.212 11.723 11.116 11.723 5.688 0 8.988-3.213 10.116-7.425h-4.559c-0.391 1.346-1.91 3.691-5.688 3.691zM152.354 12.157c3.691 0 6.122 2.475 6.122 5.905h-12.461c0-3.43 2.648-5.905 6.339-5.905zM44.475 20.277c0 4.559-2.258 7.989-6.6 7.989s-6.599-3.43-6.599-7.989c0-4.602 2.258-7.989 6.599-7.989s6.6 3.387 6.6 7.989zM68.771 20.277c0 4.559-2.258 7.989-6.6 7.989s-6.599-3.43-6.599-7.989c0-4.602 2.258-7.989 6.599-7.989s6.6 3.387 6.6 7.989zM5.167 17.020h9.075c3.256 0 5.21 1.78 5.21 4.95 0 2.909-1.346 4.993-5.775 4.993h-8.51v-9.943z"></path>
</symbol>
<symbol id="icon-email" viewBox="0 0 39 32">
<path stroke-linejoin="round" stroke-linecap="butt" stroke-miterlimit="4" stroke-width="3.0968" d="M29.012 1.548c3.035 0 4.552 0 5.712 0.591 1.020 0.52 1.849 1.349 2.368 2.368 0.59 1.159 0.59 2.677 0.59 5.712v11.561c0 3.035 0 4.553-0.59 5.712-0.52 1.020-1.349 1.849-2.368 2.368-1.159 0.591-2.677 0.591-5.712 0.591h-18.787c-3.035 0-4.553 0-5.712-0.591-1.020-0.52-1.849-1.349-2.368-2.368-0.591-1.159-0.591-2.677-0.591-5.712v-11.561c0-3.035 0-4.553 0.591-5.712 0.519-1.020 1.348-1.849 2.368-2.368 1.159-0.591 2.677-0.591 5.712-0.591h18.787zM36.78 26.839l-12-10.839M14.457 16l-12 10.839M1.554 6.968l14.749 10.325c1.195 0.836 1.792 1.254 2.441 1.416 0.574 0.143 1.174 0.143 1.747 0 0.65-0.162 1.247-0.58 2.441-1.416l14.749-10.325"></path>
</symbol>
<symbol id="icon-fi-rr-angle-small-left" viewBox="0 0 32 32">
<path d="M15.053 17.867c0.124 0.125 0.271 0.224 0.434 0.292s0.337 0.103 0.513 0.103c0.176 0 0.35-0.035 0.513-0.103s0.31-0.167 0.434-0.292l6.106-6.12c0.124-0.125 0.271-0.224 0.434-0.292s0.337-0.103 0.513-0.103 0.35 0.035 0.513 0.103c0.163 0.068 0.31 0.167 0.434 0.292 0.249 0.25 0.388 0.588 0.388 0.94s-0.139 0.69-0.388 0.94l-6.12 6.12c-0.75 0.749-1.766 1.17-2.827 1.17s-2.077-0.421-2.827-1.17l-6.12-6.12c-0.246-0.248-0.385-0.584-0.386-0.933-0.001-0.175 0.033-0.349 0.099-0.512s0.164-0.31 0.288-0.435c0.124-0.125 0.271-0.224 0.434-0.292s0.337-0.103 0.513-0.103 0.35 0.035 0.513 0.103c0.163 0.068 0.31 0.167 0.434 0.292l6.106 6.12z"></path>
</symbol>
<symbol id="icon-fi-ss-caret-down" viewBox="0 0 28 32">
<path d="M5.898 12h16.513l-7.423 8.391c-0.221 0.25-0.521 0.39-0.834 0.39s-0.613-0.14-0.834-0.39l-7.422-8.391z"></path>
</symbol>
<symbol id="icon-gerb" viewBox="0 0 20 32">
<path d="M9.005 30.888c-1.738-1.263-2.991-3.156-3.414-5.351h-5.591v-23.117c2.991 1.443 5.153 4.599 5.388 7.876l0.846 6.493-0.407-0.045c-0.893 0-1.676 0.812-1.676 1.608 0 0.752 0.595 1.383 1.378 1.548l1.018 0.226c1.676-3.051 2.631-6.043 2.631-8.973 0-2.645-0.36-5.291-0.423-7.997 0-1.202 0.485-2.299 1.253-3.156 0.783 0.857 1.253 1.954 1.253 3.156 0 2.706-0.423 5.351-0.423 7.997 0 2.931 0.956 5.922 2.631 8.973l1.018-0.226c0.783-0.166 1.378-0.811 1.378-1.548 0-0.812-0.783-1.608-1.676-1.608l-0.423 0.060 0.846-6.493c0.423-3.277 2.396-6.448 5.388-7.876v23.117h-5.576c-0.423 2.18-1.613 4.148-3.414 5.351-0.423 0.286-0.783 0.631-1.018 1.097-0.219-0.466-0.58-0.811-0.987-1.112zM2.647 17.556c0.235-0.857 0.893-1.608 1.738-2.074l-0.658-5.351c-0.235-1.668-0.956-3.156-2.036-4.374v11.784h0.956v0.015zM5.466 23.929c0-0.811 0.125-1.548 0.298-2.3l-0.783-0.18c-1.144-0.346-2.036-1.203-2.333-2.3h-0.956v4.78h3.774zM9.178 23.929c0-0.977-0.783-1.834-1.801-1.954-0.172 0.631-0.297 1.263-0.297 1.954h2.099zM9.178 25.552h-1.864c0.298 1.263 0.956 2.42 1.864 3.397v-3.397zM11.809 20.547c-0.721-1.263-1.378-2.585-1.801-3.968-0.423 1.383-1.081 2.706-1.801 3.968 0.721 0.165 1.316 0.631 1.801 1.157 0.485-0.526 1.081-0.992 1.801-1.157zM12.952 23.929c0-0.691-0.125-1.323-0.297-1.954-1.018 0.12-1.801 0.977-1.801 1.954h2.099zM12.717 25.552h-1.864v3.397c0.908-0.992 1.566-2.134 1.864-3.397zM18.34 23.929v-4.78h-0.956c-0.297 1.097-1.206 1.954-2.334 2.3l-0.783 0.18c0.172 0.752 0.298 1.488 0.298 2.3h3.774zM18.34 17.556v-11.799c-1.081 1.202-1.864 2.706-2.036 4.374l-0.658 5.351c0.846 0.466 1.503 1.203 1.738 2.074h0.956z"></path>
</symbol>
<symbol id="icon-line" viewBox="0 0 2 32">
<path d="M0.766 0c0.423 0 0.766 0.343 0.766 0.766v30.467c0 0.423-0.343 0.766-0.766 0.766s-0.766-0.343-0.766-0.766v-30.467c0-0.423 0.343-0.766 0.766-0.766z"></path>
</symbol>
<symbol id="icon-lock-02" viewBox="0 0 32 32">
<path stroke-linejoin="round" stroke-linecap="round" stroke-miterlimit="4" stroke-width="2.2857" d="M9.333 14.667v-4c0-3.682 2.985-6.667 6.667-6.667s6.667 2.985 6.667 6.667v4M21.6 14.667c2.24 0 3.36 0 4.216 0.436 0.753 0.384 1.365 0.995 1.748 1.748 0.436 0.856 0.436 1.976 0.436 4.216v0.533c0 2.24 0 3.36-0.436 4.216-0.383 0.753-0.995 1.365-1.748 1.748-0.856 0.436-1.976 0.436-4.216 0.436h-11.2c-2.24 0-3.361 0-4.216-0.436-0.753-0.383-1.365-0.995-1.748-1.748-0.436-0.856-0.436-1.976-0.436-4.216v-0.533c0-2.24 0-3.36 0.436-4.216 0.383-0.753 0.995-1.365 1.748-1.748 0.855-0.436 1.976-0.436 4.216-0.436h11.2z"></path>
</symbol>
<symbol id="icon-logo" viewBox="0 0 32 32">
<path fill="#f6f6f6" style="fill: var(--color3, #f6f6f6)" d="M4 0l12.257 12.129 11.743 11.871v-24h-24z"></path>
<path fill="#f6f6f6" style="fill: var(--color3, #f6f6f6)" d="M7.343 3.171l8.957 8.871 8.443 8.614h-17.4v-17.486z"></path>
<path fill="#4f2ee8" style="fill: var(--color1, #4f2ee8)" d="M24.8 20.714l-8.957-8.871-8.443-8.614h17.4v17.486z"></path>
<path fill="#4f2ee8" style="fill: var(--color1, #4f2ee8)" d="M10.943 6.771l10.2 10.2h-10.2v-10.2z"></path>
<path fill="#f6f6f6" style="fill: var(--color3, #f6f6f6)" d="M10.943 6.771l10.2 10.2v-10.2h-10.2z"></path>
</symbol>
<symbol id="icon-Logotype" viewBox="0 0 34 32">
<path fill="#4f2ee8" style="fill: var(--color1, #4f2ee8)" d="M32.716 8.869c-0.716-0.375-1.463-0.688-2.24-0.953v18.801c-1.737-0.641-3.52-0.969-5.333-0.969-2.895 0-5.76 0.844-8.381 2.469v-18.911c-2.469-1.454-5.318-2.313-8.381-2.313-2.728 0-5.303 0.688-7.573 1.875-0.503 0.25-0.808 0.797-0.808 1.375v18.88c0 0.906 0.716 1.547 1.524 1.547 0.244 0 0.488-0.063 0.731-0.188 1.844-0.985 3.916-1.61 6.126-1.61 3.154 0 6.065 1.282 8.381 3.126 2.316-1.844 5.227-3.126 8.381-3.126 2.21 0 4.282 0.625 6.126 1.625 0.244 0.125 0.488 0.188 0.731 0.188 0.792 0 1.524-0.641 1.524-1.547v-18.895c0-0.578-0.305-1.125-0.808-1.375zM13.714 26.717c-1.737-0.641-3.52-0.969-5.333-0.969s-3.596 0.328-5.333 0.969v-15.488c1.691-0.735 3.474-1.11 5.333-1.11 1.829 0 3.642 0.391 5.333 1.125v15.473zM27.429 1.524l-7.619 7.814v14.847l7.619-7.033v-15.629z"></path>
</symbol>
<symbol id="icon-material-symbols_arrow-back-ios-rounded" viewBox="0 0 32 32">
<path d="M4.5 19.6l11.2-11.233c0.133-0.133 0.278-0.228 0.433-0.283s0.322-0.084 0.5-0.084c0.178 0 0.345 0.028 0.5 0.084s0.3 0.149 0.433 0.283l11.233 11.233c0.311 0.311 0.467 0.7 0.467 1.167s-0.167 0.867-0.5 1.2c-0.333 0.333-0.722 0.5-1.167 0.5s-0.833-0.167-1.167-0.5l-9.8-9.8-9.8 9.8c-0.311 0.311-0.694 0.467-1.149 0.467s-0.851-0.167-1.184-0.5-0.5-0.722-0.5-1.167c0-0.445 0.167-0.833 0.5-1.167z"></path>
</symbol>
<symbol id="icon-trash-03" viewBox="0 0 32 32">
<path stroke-linejoin="round" stroke-linecap="butt" stroke-miterlimit="4" stroke-width="2.1333" d="M13.067 2.933h5.867M7.2 5.867h17.6M22.844 5.867l-0.686 10.286c-0.103 1.543-0.154 2.315-0.488 2.9-0.294 0.515-0.736 0.929-1.27 1.188-0.606 0.294-1.379 0.294-2.926 0.294h-2.951c-1.547 0-2.32 0-2.926-0.294-0.534-0.258-0.976-0.673-1.27-1.188-0.333-0.585-0.385-1.357-0.488-2.9l-0.686-10.286M14.044 10.267v4.889M17.956 10.267v4.889"></path>
</symbol>
<symbol id="icon-user" viewBox="0 0 32 32">
<path fill="#f6f6f6" style="fill: var(--color3, #f6f6f6)" d="M32 16c0 8.837-7.163 16-16 16s-16-7.163-16-16c0-8.837 7.163-16 16-16s16 7.163 16 16z"></path>
<path fill="#4f2ee8" style="fill: var(--color1, #4f2ee8)" d="M10.522 22.847c0-1.453 0.577-2.846 1.604-3.873s2.42-1.604 3.873-1.604c1.453 0 2.846 0.577 3.873 1.604s1.604 2.42 1.604 3.873h-10.955zM16 16.685c-2.27 0-4.108-1.838-4.108-4.108s1.838-4.108 4.108-4.108c2.27 0 4.108 1.838 4.108 4.108s-1.838 4.108-4.108 4.108z"></path>
</symbol>
<symbol id="icon-x-close" viewBox="0 0 32 32">
<path stroke-linejoin="round" stroke-linecap="butt" stroke-miterlimit="4" stroke-width="3.4286" d="M24 8l-16 16M8 8l16 16"></path>
</symbol>
<symbol id="icon-zaglushka" viewBox="0 0 30 32">
<path fill="#4f2ee8" style="fill: var(--color1, #4f2ee8)" d="M29.392 10.57c-0.643-0.348-1.314-0.637-2.012-0.883v17.419c-1.561-0.594-3.162-0.898-4.791-0.898-2.601 0-5.175 0.782-7.529 2.288v-17.52c-2.218-1.347-4.778-2.143-7.529-2.143-2.45 0-4.764 0.637-6.804 1.738-0.452 0.232-0.726 0.738-0.726 1.274v17.491c0 0.84 0.643 1.433 1.369 1.433 0.219 0 0.438-0.058 0.657-0.174 1.656-0.912 3.518-1.491 5.503-1.491 2.834 0 5.449 1.187 7.529 2.896 2.081-1.709 4.696-2.896 7.529-2.896 1.985 0 3.847 0.579 5.503 1.506 0.219 0.116 0.438 0.174 0.657 0.174 0.712 0 1.369-0.594 1.369-1.433v-17.506c0-0.536-0.274-1.043-0.726-1.274zM12.321 27.106c-1.561-0.594-3.162-0.898-4.791-0.898s-3.231 0.304-4.791 0.898v-14.349c1.52-0.68 3.121-1.028 4.791-1.028 1.643 0 3.272 0.362 4.791 1.043v14.335zM24.642 3.765l-6.845 7.24v13.756l6.845-6.516v-14.48z"></path>
</symbol>
</defs>
</svg>
